<svg xmlns="http://www.w3.org/2000/svg" xmlns:xlink="http://www.w3.org/1999/xlink" zoomAndPan="magnify" preserveAspectRatio="xMidYMid meet" version="1.0" viewBox="6.37 130 342.32 65"><defs><g/><clipPath id="87630804cb"><path d="M 6.371094 130 L 77.664062 130 L 77.664062 195 L 6.371094 195 Z M 6.371094 130 " clip-rule="nonzero"/></clipPath><clipPath id="652b76f47b"><path d="M 37.707031 135 L 96 135 L 96 192.101562 L 37.707031 192.101562 Z M 37.707031 135 " clip-rule="nonzero"/></clipPath><clipPath id="03d094ef04"><path d="M 48 180 L 69 180 L 69 192.101562 L 48 192.101562 Z M 48 180 " clip-rule="nonzero"/></clipPath></defs><g clip-path="url(#87630804cb)"><path fill="#ffffff" d="M 54.585938 130.675781 C 53.828125 130.652344 53.097656 130.664062 52.390625 130.707031 C 51.578125 130.710938 50.765625 130.714844 49.957031 130.71875 C 50.621094 130.691406 51.3125 130.691406 52.023438 130.722656 C 52.878906 130.707031 53.730469 130.691406 54.585938 130.675781 Z M 70.265625 130.386719 C 63.949219 130.585938 59.023438 132.578125 54.976562 135.710938 C 51.480469 135.074219 47.980469 134.433594 44.484375 133.796875 C 47.636719 131.75 51.429688 130.539062 56.246094 130.644531 C 60.917969 130.558594 65.59375 130.472656 70.265625 130.386719 Z M 74.488281 130.308594 C 73.382812 130.355469 72.316406 130.457031 71.285156 130.605469 C 70.476562 130.609375 69.664062 130.613281 68.851562 130.617188 C 69.839844 130.484375 70.863281 130.394531 71.925781 130.355469 C 72.78125 130.34375 73.632812 130.328125 74.488281 130.308594 Z M 69.164062 130.988281 C 68.1875 131.203125 67.246094 131.464844 66.339844 131.773438 C 65.59375 131.746094 64.851562 131.71875 64.105469 131.695312 C 64.976562 131.410156 65.878906 131.167969 66.816406 130.96875 C 67.597656 130.976562 68.382812 130.984375 69.164062 130.988281 Z M 64.46875 132.480469 C 63.609375 132.847656 62.78125 133.253906 61.980469 133.699219 C 61.292969 133.632812 60.605469 133.566406 59.914062 133.5 C 60.683594 133.082031 61.480469 132.699219 62.308594 132.359375 C 63.027344 132.398438 63.75 132.441406 64.46875 132.480469 Z M 60.332031 134.695312 C 59.574219 135.191406 58.84375 135.726562 58.136719 136.289062 C 57.496094 136.171875 56.859375 136.058594 56.21875 135.941406 C 56.898438 135.40625 57.601562 134.90625 58.332031 134.4375 C 58.996094 134.523438 59.664062 134.609375 60.332031 134.695312 Z M 42.210938 134.261719 C 41.734375 134.605469 41.273438 134.964844 40.828125 135.34375 C 40.230469 135.167969 39.632812 134.992188 39.039062 134.816406 C 39.460938 134.472656 39.898438 134.148438 40.347656 133.839844 C 40.96875 133.980469 41.589844 134.121094 42.210938 134.261719 Z M 53.609375 136.84375 C 49.761719 140.230469 46.734375 144.679688 44.015625 149.535156 C 41.285156 147.382812 38.554688 145.230469 35.820312 143.078125 C 38 139.773438 40.40625 136.765625 43.417969 134.535156 C 46.816406 135.304688 50.210938 136.074219 53.609375 136.84375 Z M 56.679688 137.535156 C 56.011719 138.148438 55.363281 138.789062 54.738281 139.457031 C 54.140625 139.28125 53.542969 139.105469 52.945312 138.929688 C 53.546875 138.296875 54.171875 137.691406 54.820312 137.117188 C 55.4375 137.253906 56.058594 137.394531 56.679688 137.535156 Z M 53.441406 140.914062 C 52.847656 141.621094 52.269531 142.355469 51.707031 143.109375 C 51.148438 142.863281 50.589844 142.621094 50.027344 142.378906 C 50.566406 141.664062 51.125 140.972656 51.699219 140.304688 C 52.28125 140.507812 52.863281 140.710938 53.441406 140.914062 Z M 50.546875 144.738281 C 50.011719 145.519531 49.492188 146.324219 48.984375 147.148438 C 48.453125 146.832031 47.925781 146.515625 47.398438 146.199219 C 47.890625 145.421875 48.390625 144.660156 48.910156 143.917969 C 49.457031 144.191406 50.003906 144.464844 50.546875 144.738281 Z M 47.925781 148.910156 C 47.433594 149.753906 46.953125 150.613281 46.484375 151.480469 C 45.984375 151.085938 45.484375 150.695312 44.984375 150.300781 C 45.441406 149.476562 45.90625 148.664062 46.378906 147.867188 C 46.894531 148.214844 47.410156 148.5625 47.925781 148.910156 Z M 34.128906 143.402344 C 33.792969 143.921875 33.457031 144.449219 33.125 144.980469 C 32.652344 144.503906 32.179688 144.03125 31.707031 143.558594 C 32.023438 143.074219 32.339844 142.59375 32.664062 142.125 C 33.152344 142.550781 33.640625 142.976562 34.128906 143.402344 Z M 43.089844 151.230469 C 40.4375 156.175781 38.042969 161.445312 35.390625 166.382812 C 33.21875 162.445312 31.042969 158.507812 28.871094 154.570312 C 31 151.203125 32.945312 147.597656 35.074219 144.230469 C 37.746094 146.566406 40.417969 148.898438 43.089844 151.230469 Z M 45.5 153.339844 C 45.042969 154.226562 44.589844 155.121094 44.144531 156.023438 C 43.671875 155.546875 43.199219 155.074219 42.726562 154.597656 C 43.15625 153.746094 43.59375 152.898438 44.039062 152.0625 C 44.523438 152.488281 45.011719 152.914062 45.5 153.339844 Z M 43.207031 157.9375 C 42.765625 158.847656 42.328125 159.757812 41.890625 160.675781 C 41.441406 160.117188 40.992188 159.5625 40.546875 159.003906 C 40.96875 158.140625 41.390625 157.277344 41.816406 156.414062 C 42.28125 156.921875 42.742188 157.429688 43.207031 157.9375 Z M 40.96875 162.609375 C 40.527344 163.523438 40.09375 164.4375 39.652344 165.34375 C 39.230469 164.707031 38.804688 164.066406 38.382812 163.429688 C 38.808594 162.566406 39.230469 161.703125 39.65625 160.839844 C 40.09375 161.429688 40.527344 162.019531 40.96875 162.609375 Z M 38.710938 167.261719 C 38.265625 168.160156 37.816406 169.054688 37.355469 169.941406 C 36.957031 169.222656 36.5625 168.503906 36.164062 167.78125 C 36.605469 166.945312 37.042969 166.097656 37.476562 165.242188 C 37.886719 165.914062 38.300781 166.585938 38.710938 167.261719 Z M 27.371094 154.261719 C 27.027344 154.773438 26.675781 155.277344 26.3125 155.769531 C 25.945312 154.972656 25.578125 154.171875 25.207031 153.375 C 25.550781 152.925781 25.882812 152.46875 26.214844 152.003906 C 26.601562 152.757812 26.988281 153.511719 27.371094 154.261719 Z M 34.464844 168.082031 C 31.75 172.9375 28.71875 177.386719 24.871094 180.777344 C 23.421875 175.273438 21.976562 169.769531 20.527344 164.265625 C 23.535156 162.039062 25.945312 159.03125 28.125 155.726562 C 30.238281 159.84375 32.351562 163.960938 34.464844 168.082031 Z M 36.375 171.800781 C 35.902344 172.671875 35.425781 173.53125 34.933594 174.375 C 34.5625 173.574219 34.191406 172.777344 33.824219 171.976562 C 34.296875 171.179688 34.757812 170.367188 35.214844 169.542969 C 35.601562 170.292969 35.988281 171.046875 36.375 171.800781 Z M 33.875 176.136719 C 33.367188 176.957031 32.847656 177.761719 32.308594 178.546875 C 31.96875 177.671875 31.628906 176.800781 31.292969 175.925781 C 31.808594 175.183594 32.3125 174.421875 32.800781 173.644531 C 33.160156 174.476562 33.519531 175.304688 33.875 176.136719 Z M 31.148438 180.175781 C 30.589844 180.929688 30.011719 181.660156 29.414062 182.367188 C 29.109375 181.425781 28.804688 180.480469 28.5 179.539062 C 29.074219 178.871094 29.632812 178.179688 30.171875 177.464844 C 30.496094 178.371094 30.824219 179.273438 31.148438 180.175781 Z M 28.121094 183.828125 C 27.496094 184.496094 26.847656 185.136719 26.175781 185.746094 C 25.914062 184.738281 25.648438 183.734375 25.382812 182.726562 C 26.027344 182.152344 26.652344 181.546875 27.253906 180.914062 C 27.542969 181.886719 27.832031 182.855469 28.121094 183.828125 Z M 18.984375 163.007812 C 18.484375 163.320312 17.96875 163.613281 17.4375 163.882812 C 17.21875 162.820312 17 161.761719 16.78125 160.699219 C 17.285156 160.460938 17.773438 160.199219 18.246094 159.917969 C 18.492188 160.949219 18.738281 161.976562 18.984375 163.007812 Z M 23.503906 181.90625 C 19.457031 185.039062 14.53125 187.035156 8.214844 187.230469 C 8.042969 180.871094 7.871094 174.515625 7.699219 168.15625 C 12.511719 168.261719 16.308594 167.050781 19.460938 165.007812 C 20.808594 170.640625 22.15625 176.273438 23.503906 181.90625 Z M 24.722656 186.992188 C 24.015625 187.558594 23.28125 188.09375 22.523438 188.589844 C 22.308594 187.527344 22.089844 186.46875 21.871094 185.40625 C 22.601562 184.9375 23.300781 184.4375 23.980469 183.902344 C 24.226562 184.933594 24.472656 185.964844 24.722656 186.992188 Z M 20.878906 189.585938 C 20.078125 190.03125 19.25 190.4375 18.386719 190.800781 C 18.222656 189.695312 18.058594 188.589844 17.894531 187.484375 C 18.71875 187.144531 19.515625 186.761719 20.285156 186.34375 C 20.484375 187.425781 20.679688 188.503906 20.878906 189.585938 Z M 16.515625 191.511719 C 15.609375 191.816406 14.671875 192.078125 13.691406 192.292969 C 13.589844 191.152344 13.488281 190.015625 13.386719 188.875 C 14.320312 188.675781 15.226562 188.433594 16.097656 188.148438 C 16.238281 189.269531 16.378906 190.390625 16.515625 191.511719 Z M 11.570312 192.679688 C 10.542969 192.828125 9.476562 192.925781 8.367188 192.972656 C 8.339844 191.808594 8.308594 190.648438 8.277344 189.484375 C 9.335938 189.449219 10.363281 189.359375 11.347656 189.226562 C 11.421875 190.378906 11.496094 191.527344 11.570312 192.679688 Z M 7.542969 162.414062 C 8.257812 162.445312 8.945312 162.445312 9.613281 162.417969 C 9.6875 163.570312 9.761719 164.71875 9.835938 165.871094 C 9.125 165.914062 8.398438 165.921875 7.636719 165.902344 C 7.609375 164.738281 7.574219 163.578125 7.542969 162.414062 Z M 10.988281 162.3125 C 11.625 162.246094 12.234375 162.148438 12.828125 162.023438 C 12.96875 163.144531 13.109375 164.265625 13.25 165.390625 C 12.617188 165.53125 11.96875 165.648438 11.296875 165.734375 C 11.195312 164.59375 11.089844 163.453125 10.988281 162.3125 Z M 14.054688 161.722656 C 14.621094 161.566406 15.164062 161.378906 15.691406 161.171875 C 15.890625 162.253906 16.085938 163.332031 16.285156 164.414062 C 15.722656 164.648438 15.144531 164.859375 14.546875 165.042969 C 14.382812 163.9375 14.21875 162.828125 14.054688 161.722656 Z M 19.222656 159.296875 C 19.671875 158.988281 20.105469 158.664062 20.53125 158.320312 C 20.820312 159.289062 21.109375 160.261719 21.394531 161.230469 C 20.949219 161.609375 20.488281 161.972656 20.015625 162.3125 C 19.75 161.308594 19.484375 160.300781 19.222656 159.296875 Z M 21.40625 157.570312 C 21.8125 157.207031 22.207031 156.824219 22.589844 156.429688 C 22.917969 157.332031 23.242188 158.238281 23.566406 159.140625 C 23.164062 159.578125 22.75 159.996094 22.320312 160.398438 C 22.015625 159.457031 21.710938 158.511719 21.40625 157.570312 Z M 23.386719 155.578125 C 23.757812 155.164062 24.121094 154.742188 24.472656 154.308594 C 24.828125 155.136719 25.1875 155.96875 25.546875 156.796875 C 25.175781 157.277344 24.792969 157.742188 24.40625 158.199219 C 24.066406 157.324219 23.726562 156.453125 23.386719 155.578125 Z M 26.902344 151.011719 C 27.226562 150.539062 27.546875 150.0625 27.859375 149.578125 C 28.273438 150.253906 28.6875 150.925781 29.097656 151.597656 C 28.769531 152.128906 28.433594 152.652344 28.097656 153.171875 C 27.699219 152.453125 27.300781 151.734375 26.902344 151.011719 Z M 28.523438 148.554688 C 28.835938 148.066406 29.148438 147.578125 29.457031 147.085938 C 29.894531 147.675781 30.332031 148.269531 30.769531 148.859375 C 30.445312 149.398438 30.121094 149.933594 29.792969 150.46875 C 29.371094 149.832031 28.949219 149.191406 28.523438 148.554688 Z M 30.113281 146.050781 C 30.421875 145.558594 30.730469 145.070312 31.042969 144.582031 C 31.503906 145.089844 31.96875 145.597656 32.429688 146.109375 C 32.105469 146.640625 31.777344 147.179688 31.457031 147.71875 C 31.007812 147.160156 30.558594 146.605469 30.113281 146.050781 Z M 33.351562 141.132812 C 33.683594 140.667969 34.019531 140.210938 34.359375 139.761719 C 34.875 140.109375 35.390625 140.460938 35.90625 140.804688 C 35.550781 141.300781 35.195312 141.800781 34.851562 142.3125 C 34.351562 141.917969 33.851562 141.523438 33.351562 141.132812 Z M 35.09375 138.828125 C 35.449219 138.394531 35.808594 137.972656 36.179688 137.558594 C 36.726562 137.832031 37.273438 138.105469 37.816406 138.378906 C 37.429688 138.832031 37.050781 139.300781 36.679688 139.777344 C 36.152344 139.460938 35.625 139.144531 35.09375 138.828125 Z M 36.976562 136.707031 C 37.359375 136.3125 37.753906 135.929688 38.160156 135.566406 C 38.742188 135.769531 39.324219 135.972656 39.902344 136.175781 C 39.476562 136.578125 39.0625 137 38.65625 137.4375 C 38.097656 137.191406 37.535156 136.949219 36.976562 136.707031 Z M 41.324219 133.21875 C 41.796875 132.9375 42.28125 132.675781 42.785156 132.4375 C 43.453125 132.523438 44.121094 132.609375 44.789062 132.695312 C 44.253906 132.964844 43.742188 133.253906 43.242188 133.570312 C 42.601562 133.449219 41.964844 133.332031 41.324219 133.21875 Z M 43.875 131.964844 C 44.402344 131.757812 44.949219 131.574219 45.515625 131.414062 C 46.238281 131.453125 46.957031 131.492188 47.675781 131.535156 C 47.078125 131.71875 46.5 131.929688 45.941406 132.160156 C 45.253906 132.09375 44.566406 132.03125 43.875 131.964844 Z M 46.738281 131.113281 C 47.332031 130.988281 47.945312 130.890625 48.578125 130.824219 C 49.363281 130.828125 50.144531 130.835938 50.929688 130.84375 C 50.253906 130.925781 49.605469 131.042969 48.976562 131.1875 C 48.230469 131.164062 47.484375 131.136719 46.738281 131.113281 Z M 6.375 160.382812 C 6.445312 171.90625 6.519531 183.433594 6.585938 194.957031 C 47.117188 195.140625 37.226562 130.0625 77.757812 130.246094 C 69.074219 130.441406 60.390625 130.636719 51.703125 130.832031 C 27.140625 128.445312 30.941406 162.769531 6.375 160.382812 " fill-opacity="1" fill-rule="nonzero"/></g><g clip-path="url(#652b76f47b)"><path fill="#ffffff" d="M 85.6875 192.199219 C 87.867188 190.40625 88.882812 187.226562 88.890625 184.269531 C 86.925781 183.804688 83.554688 183.078125 84.339844 180.050781 C 82.882812 178.621094 80.886719 178.367188 79.136719 177.542969 C 79.230469 181.957031 77.109375 175.636719 75.492188 176.222656 C 75.21875 176.777344 74.875 177.285156 74.59375 177.824219 C 75.476562 178.496094 76.5 179.050781 77.386719 179.789062 C 77.996094 178.671875 78.425781 178.902344 77.5625 179.890625 C 77.660156 180.011719 77.757812 180.109375 77.902344 180.132812 L 77.898438 180.128906 C 80.691406 182.585938 84.039062 185.886719 84.523438 189.980469 C 81.542969 182.671875 75.429688 178.519531 69.023438 175.394531 C 64.707031 172.839844 60.851562 169.289062 56.25 167.34375 C 50.386719 163.574219 42.339844 182.703125 37.710938 186.9375 L 37.710938 186.214844 C 41.65625 180.9375 45.40625 175.378906 49.347656 170.0625 C 44.507812 170.507812 40.707031 174.527344 37.710938 178.421875 L 37.710938 177.492188 C 40.957031 174.136719 44.609375 169.308594 49.507812 169.832031 C 53.140625 162.285156 60.761719 169.40625 65.261719 172.257812 C 64.722656 171.324219 64.066406 170.367188 63.855469 169.210938 C 63.0625 168.679688 62.257812 167.871094 62.316406 166.753906 C 61.402344 166.25 60.503906 165.726562 59.523438 165.414062 C 57.65625 163.238281 57.664062 156.820312 56.433594 153.261719 C 56.195312 151.632812 55.425781 149.925781 55.59375 148.296875 C 56.175781 148.507812 56.65625 148.21875 57.269531 147.996094 C 59.453125 148.695312 62.296875 150.464844 64.8125 151.304688 C 67.578125 150.152344 70.046875 147.929688 72.878906 146.71875 C 73.105469 143.824219 73.214844 138.25 76.6875 138.132812 C 80.578125 133.339844 88.292969 134.953125 89.875 141.300781 C 90.710938 144.476562 89.925781 147.875 90.753906 151.042969 C 91.648438 154.875 96.496094 156.003906 95.925781 160.566406 C 94.992188 156.886719 93.742188 155.027344 90.222656 154.25 C 88.097656 159.835938 91.46875 159.21875 88.082031 161.257812 L 88.152344 161.429688 C 85.765625 164.949219 83.472656 168.519531 80.433594 171.410156 C 82.671875 173.464844 85.253906 174.148438 88.039062 173.636719 C 88.285156 171.835938 87.835938 169.484375 88.558594 167.945312 C 88.917969 168.867188 88.335938 170.375 88.515625 171.46875 C 88.773438 170.390625 88.765625 168.777344 89.527344 168.0625 C 89.273438 169.820312 88.683594 171.828125 88.621094 173.722656 C 95.976562 174.65625 95.917969 175.660156 88.46875 174.160156 C 88.339844 174.441406 88.386719 174.378906 88.132812 174.429688 C 88.320312 178.488281 87.449219 176.957031 87.925781 174.082031 C 87.476562 174.007812 86.636719 173.789062 86.371094 174.265625 C 87.652344 175.914062 86.253906 184.628906 84.636719 180.316406 C 84.183594 183.074219 87.578125 183.515625 89.390625 183.835938 C 89.933594 181.832031 89.964844 179.4375 89.878906 177.449219 C 91.007812 178.914062 89.910156 181.863281 89.917969 183.78125 C 95.730469 184.667969 94.695312 176.042969 95.824219 171.964844 C 95.851562 176.734375 95.453125 185.613281 89.285156 184.320312 C 89.238281 187.214844 88.34375 190.191406 86.433594 192.199219 Z M 81.820312 178.117188 L 81.851562 178.140625 L 81.851562 178.121094 L 81.8125 178.121094 C 80.929688 177.28125 79.863281 176.511719 78.878906 175.773438 C 78.875 176.242188 79.015625 177.117188 79.140625 177.402344 C 80.015625 177.292969 80.945312 177.914062 81.820312 178.117188 Z M 77.027344 139.199219 C 74.203125 136.703125 73.421875 144.34375 73.273438 146.476562 C 76.320312 142.996094 76.996094 155.699219 78.363281 157.875 C 78.460938 155.875 77.308594 153.492188 77.921875 151.695312 C 78.679688 155.160156 78.351562 159.191406 79.617188 162.613281 C 80.515625 159.734375 82.390625 156.71875 81.058594 153.621094 C 82.109375 153.027344 81.722656 157 81.699219 157.9375 C 82.796875 156.460938 83.425781 154.765625 82.539062 152.957031 C 79.808594 153.800781 77.347656 149.949219 76.914062 147.21875 L 76.726562 147.121094 C 75.671875 145.167969 74.4375 140.351562 76.929688 139.578125 C 74.128906 143.308594 77.679688 150.664062 81.121094 152.535156 C 83.011719 153.4375 87.035156 148.265625 86.636719 146.101562 L 86.726562 146.117188 C 86.46875 145.023438 87.691406 145.417969 87.949219 144.492188 L 88.050781 144.519531 C 89.148438 143.082031 87.027344 139.875 86.382812 142.511719 C 85.964844 142.566406 86.074219 143.109375 85.898438 143.351562 C 85.820312 143.128906 85.921875 142.921875 85.917969 142.703125 C 83.066406 140.914062 80.421875 137.839844 76.9375 139.316406 Z M 66.523438 151.160156 C 68.242188 156.707031 68.074219 163.5 73.703125 165.863281 C 73.265625 164.113281 70.789062 163.558594 70.796875 161.78125 C 74.617188 162.121094 74.652344 167.613281 79.21875 164.292969 C 79.226562 164.152344 79.34375 164.121094 79.4375 164.050781 C 78.171875 158.191406 76.304688 152.394531 75.007812 146.507812 C 72.265625 147.367188 68.960938 149.195312 66.523438 151.160156 Z M 86.601562 161.960938 C 87.660156 160.941406 91.226562 149.496094 90.34375 153.820312 C 90.847656 154.296875 91.441406 154.390625 92.09375 154.390625 C 87.367188 148.082031 93.167969 134.308594 80.769531 135.796875 L 80.828125 135.933594 C 79.664062 136.867188 78.246094 137.496094 77.4375 138.898438 C 80.746094 137.355469 83.339844 140.757812 86.046875 142.261719 C 88.046875 138.410156 90.25 145.523438 86.996094 145.835938 C 87.570312 149.710938 85.660156 153.179688 85.429688 156.972656 C 86.871094 154.796875 86.84375 151.578125 87.75 149.339844 C 87.710938 152.269531 86.675781 155.433594 85.40625 158.03125 C 85.351562 159.890625 85.941406 161.980469 85.226562 163.714844 C 85.03125 163.085938 85.1875 162.46875 85.125 161.820312 C 81.617188 163.058594 82.679688 168.585938 79.769531 170.929688 C 79.863281 171.023438 79.976562 171.09375 80.105469 171.140625 C 83.894531 168.285156 85.664062 162.382812 89.300781 160.054688 C 89.117188 159.277344 89.171875 158.4375 89.101562 157.671875 C 88.285156 159.011719 87.984375 161.238281 86.601562 161.960938 Z M 62.179688 166.191406 C 61.707031 164.742188 61.730469 157.832031 63.464844 161.765625 L 63.632812 161.585938 C 64.144531 161.636719 64.457031 161.828125 64.484375 162.460938 C 66.117188 161.574219 65.445312 165.085938 65.390625 165.988281 C 66.6875 162.402344 67.300781 165.664062 66.453125 167.675781 C 66.964844 167.996094 67.457031 168.28125 67.980469 168.5625 C 66.824219 162.976562 65.269531 157.453125 64.128906 151.84375 C 61.175781 151.617188 58.523438 149.664062 55.765625 148.757812 C 57.140625 154.082031 58.144531 159.539062 59.425781 164.898438 C 60.398438 165.214844 61.28125 165.671875 62.179688 166.191406 Z M 69.921875 164.433594 C 73.484375 167.546875 74.371094 170.160156 69.710938 165.824219 L 69.449219 166.109375 C 69.984375 167.675781 71.410156 168.789062 72.367188 169.925781 C 71.253906 169.832031 70.648438 168.160156 69.878906 167.363281 L 69.609375 167.5 C 69.988281 167.949219 70.480469 168.300781 70.671875 168.890625 C 71.832031 171.15625 73.921875 171.984375 75.917969 172.984375 C 78.917969 175.148438 81.769531 177.535156 84.742188 179.792969 L 84.898438 179.75 C 85.179688 179.96875 85.519531 180.304688 85.878906 180.199219 C 86.65625 178.414062 86.871094 176.203125 85.992188 174.410156 C 83.046875 174.515625 80.949219 171.945312 78.527344 170.574219 C 77.914062 168.988281 77.742188 167.128906 76.886719 165.675781 C 76.492188 165.738281 76.121094 166.046875 75.714844 166.03125 C 74.511719 164.949219 73.589844 163.410156 72.238281 162.53125 C 72.214844 162.808594 72.09375 162.996094 71.882812 163.128906 C 76.003906 167.007812 73.632812 166.972656 70.546875 164.019531 C 70.433594 164.28125 70.242188 164.429688 69.921875 164.433594 Z M 82.816406 152.839844 C 84.5625 157.113281 79.574219 160.367188 79.648438 164.664062 C 79.722656 164.859375 79.773438 165.050781 79.957031 165.164062 C 82.191406 163.4375 83.78125 160.683594 84.9375 158.199219 C 85 159.875 80.355469 167.648438 79.339844 164.734375 C 78.960938 164.777344 78.625 164.964844 78.277344 165.132812 C 78.449219 166.894531 77.839844 169.761719 79.46875 170.726562 C 82.296875 168.117188 81.339844 162.636719 85.125 161.441406 C 84.347656 156.765625 86.25 152.464844 86.722656 148.015625 C 85.980469 150.046875 84.175781 151.320312 82.816406 152.84375 Z M 74.9375 176.589844 C 72.746094 175.21875 69.851562 174.636719 68.273438 172.425781 C 67.738281 171.027344 67.429688 169.128906 65.914062 168.65625 C 65.964844 167.554688 66.671875 166.609375 66.546875 165.472656 C 66.3125 165.605469 66.136719 165.632812 65.875 165.609375 C 65.445312 166.210938 65.398438 167.226562 64.859375 167.683594 C 64.515625 166.507812 65.402344 165.089844 65.175781 163.835938 C 64.980469 164.074219 64.792969 164.234375 64.535156 164.367188 C 64.339844 165.523438 64.160156 167.089844 63.824219 168 C 63.175781 166.347656 64.8125 164.144531 64.171875 162.242188 C 64 162.679688 64.007812 163.316406 63.417969 163.367188 C 63.242188 165.367188 61.738281 167.894531 64.179688 168.808594 C 65.214844 173.921875 70.566406 175.414062 74.238281 177.652344 Z M 69.339844 168.710938 C 67.785156 163.609375 66.414062 158.125 65.421875 152.863281 C 66.8125 156.722656 67.542969 160.925781 68.710938 164.890625 L 68.953125 164.742188 C 70.167969 165.355469 70.617188 166.960938 72.0625 167.214844 C 71.195312 165.8125 68.46875 164.757812 69.238281 162.742188 C 67.761719 159.238281 67.300781 155.085938 66.25 151.332031 C 65.703125 151.78125 65.054688 151.855469 64.410156 151.839844 C 65.730469 157.40625 67.414062 163.078125 68.371094 168.65625 C 68.691406 168.808594 69.007812 168.738281 69.339844 168.710938 Z M 75.609375 173.296875 C 73.9375 172.324219 71.652344 171.820312 70.863281 169.5625 C 69.859375 170.949219 70.210938 172.53125 70.742188 174.042969 C 72.035156 174.847656 73.59375 175.421875 74.941406 176.007812 C 74.917969 175.804688 74.953125 175.601562 74.917969 175.398438 C 72.644531 175.773438 74.394531 173.464844 75.609375 173.296875 Z M 66.226562 168.375 C 68.226562 169.507812 67.960938 172.738281 70.113281 173.5 C 69.671875 172.070312 69.671875 170.570312 70.5625 169.355469 C 70.4375 169.171875 70.324219 169 70.175781 168.859375 C 68.859375 169.652344 67.472656 168.917969 66.339844 168.082031 Z M 77.445312 174.664062 C 77.304688 176.101562 77.4375 177.960938 78.78125 178.640625 C 78.972656 177.597656 78.5 176.527344 78.519531 175.46875 C 78.144531 175.199219 77.828125 174.886719 77.445312 174.664062 Z M 62.53125 165.847656 C 62.890625 164.445312 63.703125 162.5625 63.027344 161.222656 C 62.914062 161.6875 62.769531 162.214844 62.285156 162.324219 C 62.390625 163.5 62.304688 164.6875 62.53125 165.847656 Z M 56.558594 148.625 C 58.878906 149.414062 61.074219 150.863281 63.488281 151.257812 C 61.417969 150.308594 59.265625 149.582031 57.398438 148.183594 C 57.078125 148.296875 56.859375 148.5 56.558594 148.625 Z M 76.167969 173.628906 C 75.449219 173.730469 74.417969 174.132812 74.203125 174.976562 C 75.128906 174.972656 76.121094 174.742188 76.949219 174.273438 C 76.835938 174.144531 76.402344 173.785156 76.167969 173.628906 Z M 77.058594 176.300781 C 77.113281 175.789062 77.125 175.28125 77.097656 174.769531 C 76.503906 175.035156 75.894531 175.210938 75.257812 175.332031 C 75.210938 175.582031 75.214844 175.828125 75.277344 176.074219 C 75.746094 175.550781 76.476562 176.296875 77.058594 176.300781 Z M 77.183594 138.6875 C 77.949219 137.570312 78.980469 136.785156 80.070312 136.09375 C 78.863281 136.539062 77.890625 137.496094 76.792969 138.175781 C 76.984375 138.304688 77.09375 138.476562 77.183594 138.6875 Z M 77.273438 165.554688 C 77.585938 166.167969 77.730469 166.746094 77.988281 167.382812 C 77.972656 166.640625 77.972656 165.992188 77.984375 165.253906 C 77.734375 165.335938 77.523438 165.480469 77.273438 165.554688 Z M 64.585938 163.929688 C 65.042969 163.675781 65.546875 162.546875 64.816406 162.40625 C 64.289062 162.609375 64.710938 163.453125 64.585938 163.929688 Z M 71.957031 162.34375 C 71.019531 161.382812 70.628906 162.371094 71.660156 162.9375 C 71.964844 162.816406 71.992188 162.765625 71.960938 162.34375 Z M 69.421875 163.113281 C 69.238281 163.550781 69.511719 163.949219 69.75 164.261719 C 69.996094 164.179688 70.304688 164.148438 70.320312 163.792969 C 70.023438 163.570312 69.746094 163.332031 69.421875 163.113281 Z M 63.691406 161.84375 C 63.566406 162.207031 63.460938 162.550781 63.46875 162.929688 C 63.945312 162.964844 63.730469 162.148438 64.09375 161.976562 C 64.007812 161.785156 63.851562 161.84375 63.691406 161.84375 Z M 69.617188 165.722656 C 69.414062 165.460938 69.21875 165.238281 68.941406 165.125 C 68.855469 165.503906 69.011719 165.703125 69.222656 165.949219 C 69.371094 165.917969 69.480469 165.828125 69.617188 165.722656 Z M 66.578125 165.113281 C 66.691406 164.042969 66.148438 164.75 66.003906 165.335938 C 66.238281 165.445312 66.386719 165.222656 66.578125 165.113281 Z M 62.304688 161.894531 C 62.636719 161.761719 62.664062 161.253906 62.789062 160.933594 C 62.316406 160.636719 62.277344 161.574219 62.304688 161.894531 Z M 69.566406 168.007812 C 69.597656 168.214844 69.644531 168.398438 69.734375 168.558594 C 70.03125 168.550781 70.03125 168.550781 70.140625 168.453125 C 70.039062 168.257812 69.878906 168.125 69.734375 167.976562 Z M 85.476562 181.144531 C 85.566406 180.929688 85.628906 180.78125 85.722656 180.570312 L 85.472656 180.484375 C 85.414062 180.570312 85.367188 180.644531 85.320312 180.714844 C 85.367188 180.859375 85.386719 181.003906 85.476562 181.144531 Z M 69.363281 166.851562 C 69.316406 167.015625 69.335938 167.167969 69.425781 167.304688 C 69.625 167.273438 69.625 167.273438 69.761719 167.167969 C 69.617188 167.074219 69.59375 166.828125 69.363281 166.851562 Z M 69.3125 166.574219 C 69.167969 166.292969 69.167969 166.292969 69.03125 166.234375 C 69.058594 166.375 69.074219 166.507812 69.136719 166.632812 Z M 69.3125 166.574219 " fill-opacity="1" fill-rule="nonzero"/></g><g clip-path="url(#03d094ef04)"><path fill="#ffffff" d="M 61.582031 192.199219 C 59.550781 189.570312 56.816406 187.34375 55.042969 184.589844 C 54.414062 183.992188 53.785156 183.355469 52.992188 183.035156 C 51.644531 186.09375 50.125 189.109375 48.878906 192.199219 L 48.414062 192.199219 C 55.933594 171.984375 57.101562 180.511719 68.515625 192.199219 L 67.769531 192.199219 C 64.230469 188.121094 60.449219 182.554688 55.78125 180.324219 C 54.375 179.523438 53.5625 181.65625 53.070312 182.75 C 56.730469 184.855469 59.019531 189.246094 62.234375 192.199219 Z M 61.582031 192.199219 " fill-opacity="1" fill-rule="nonzero"/></g><path fill="#ffffff" d="M 77.894531 180.128906 L 77.902344 180.132812 C 80.417969 178.820312 84.28125 182.488281 85.386719 185.402344 C 83.308594 182.960938 81.441406 179.945312 77.894531 180.128906 Z M 77.894531 180.128906 " fill-opacity="1" fill-rule="nonzero"/><path fill="#ffffff" d="M 91.15625 182.207031 C 90.691406 179.863281 90.949219 176.933594 89.945312 174.742188 C 91.449219 176.464844 91.496094 179.941406 91.15625 182.207031 Z M 91.15625 182.207031 " fill-opacity="1" fill-rule="nonzero"/><path fill="#ffffff" d="M 92.722656 171.972656 C 87.144531 174.660156 90.070312 171.996094 93.09375 171.710938 C 93.226562 172.515625 91.234375 173.527344 90.582031 173.519531 C 90.828125 172.761719 92.132812 172.550781 92.722656 171.972656 Z M 92.722656 171.972656 " fill-opacity="1" fill-rule="nonzero"/><path fill="#ffffff" d="M 90.070312 169.136719 C 90.65625 166.769531 91.101562 163.867188 92.449219 161.976562 C 91.59375 163.394531 90.863281 169.21875 90.070312 169.136719 Z M 90.070312 169.136719 " fill-opacity="1" fill-rule="nonzero"/><path fill="#ffffff" d="M 89.21875 176.417969 C 89.054688 179.277344 88.347656 178.921875 88.894531 176.234375 C 88.675781 173.699219 89.316406 174.230469 89.21875 176.417969 Z M 89.21875 176.417969 " fill-opacity="1" fill-rule="nonzero"/><path fill="#ffffff" d="M 79.886719 159.925781 C 80.246094 157.394531 79.683594 154.699219 79.644531 152.277344 C 80.253906 154.566406 80.769531 157.582031 79.886719 159.925781 Z M 79.886719 159.925781 " fill-opacity="1" fill-rule="nonzero"/><path fill="#ffffff" d="M 74.730469 145.605469 C 73.824219 144.011719 74.589844 139.886719 76.246094 139.257812 C 74.847656 140.625 74.429688 143.476562 74.730469 145.605469 Z M 74.730469 145.605469 " fill-opacity="1" fill-rule="nonzero"/><path fill="#ffffff" d="M 87.726562 142.097656 C 87.832031 142.257812 87.835938 142.40625 87.78125 142.574219 C 87.09375 141.96875 86.964844 143.066406 86.625 143.28125 C 86.5625 142.640625 87 141.792969 87.726562 142.097656 Z M 87.726562 142.097656 " fill-opacity="1" fill-rule="nonzero"/><path fill="#ffffff" d="M 86.089844 160.390625 C 87.769531 157.722656 87.960938 154.117188 89.046875 151.332031 C 88.710938 154.195312 88.101562 158.269531 86.089844 160.390625 Z M 86.089844 160.390625 " fill-opacity="1" fill-rule="nonzero"/><path fill="#ffffff" d="M 86.339844 140.953125 C 85.074219 138.582031 82.523438 136.917969 80.03125 137.6875 C 81.59375 136.117188 85.878906 138.265625 86.335938 140.957031 Z M 86.339844 140.953125 " fill-opacity="1" fill-rule="nonzero"/><path fill="#ffffff" d="M 85.585938 159.128906 C 86.671875 156.59375 87.738281 153.917969 88.394531 151.265625 C 88.304688 153.824219 87.089844 157 85.585938 159.128906 Z M 85.585938 159.128906 " fill-opacity="1" fill-rule="nonzero"/><path fill="#ffffff" d="M 87.300781 140.015625 C 86.417969 138.597656 85.425781 136.625 83.753906 136.8125 C 84.894531 135.574219 87.214844 138.554688 87.300781 140.015625 Z M 87.300781 140.015625 " fill-opacity="1" fill-rule="nonzero"/><path fill="#ffffff" d="M 86.335938 140.957031 L 86.367188 140.972656 L 86.351562 140.992188 C 86.347656 140.980469 86.34375 140.964844 86.339844 140.953125 Z M 86.335938 140.957031 " fill-opacity="1" fill-rule="nonzero"/><path fill="#ffffff" d="M 73.871094 169.910156 C 73.847656 170.199219 72.796875 170.992188 72.960938 170.390625 C 73.226562 170.304688 73.808594 169.265625 73.871094 169.910156 Z M 73.871094 169.910156 " fill-opacity="1" fill-rule="nonzero"/><path fill="#ffffff" d="M 75.722656 167.058594 C 75.832031 167.53125 74.886719 168.394531 74.988281 167.65625 C 75.355469 167.636719 75.511719 166.492188 75.722656 167.058594 Z M 75.722656 167.058594 " fill-opacity="1" fill-rule="nonzero"/><path fill="#ffffff" d="M 84.175781 155.53125 C 85.316406 156.035156 83.722656 155.761719 83.671875 156.476562 C 83.054688 156.730469 83.808594 155.464844 84.175781 155.53125 Z M 84.175781 155.53125 " fill-opacity="1" fill-rule="nonzero"/><path fill="#ffffff" d="M 58.515625 149.28125 C 58.082031 148.945312 57.503906 148.8125 57.144531 148.394531 C 57.605469 148.714844 58.109375 148.871094 58.542969 149.238281 Z M 58.515625 149.28125 " fill-opacity="1" fill-rule="nonzero"/><g fill="#ffffff" fill-opacity="1"><g transform="translate(113.330572, 188.157585)"><g><path d="M 16.640625 -32.296875 C 19.742188 -32.296875 22.535156 -31.648438 25.015625 -30.359375 L 23.828125 -24.765625 L 23.28125 -24.515625 C 22.289062 -25.210938 21.203125 -25.757812 20.015625 -26.15625 C 18.828125 -26.550781 17.601562 -26.75 16.34375 -26.75 C 11.09375 -26.75 8.46875 -23.296875 8.46875 -16.390625 C 8.46875 -12.660156 9.148438 -9.863281 10.515625 -8 C 11.890625 -6.132812 13.898438 -5.203125 16.546875 -5.203125 C 17.765625 -5.203125 19.023438 -5.390625 20.328125 -5.765625 C 21.628906 -6.148438 22.8125 -6.671875 23.875 -7.328125 L 24.46875 -6.984375 L 23.921875 -1.28125 C 21.410156 -0.125 18.769531 0.453125 16 0.453125 C 11.238281 0.453125 7.613281 -0.929688 5.125 -3.703125 C 2.632812 -6.484375 1.390625 -10.46875 1.390625 -15.65625 C 1.390625 -20.9375 2.71875 -25.03125 5.375 -27.9375 C 8.03125 -30.84375 11.785156 -32.296875 16.640625 -32.296875 Z M 16.640625 -32.296875 "/></g></g></g><g fill="#ffffff" fill-opacity="1"><g transform="translate(140.719925, 188.157585)"><g><path d="M 9.609375 -8.03125 L 9.859375 0 L 3.609375 0 L 3.859375 -7.421875 L 3.609375 -25.015625 L 9.953125 -25.015625 Z M 9.609375 -8.03125 "/></g></g></g><g fill="#ffffff" fill-opacity="1"><g transform="translate(156.321574, 188.157585)"><g><path d="M 26 -7.921875 L 26.25 0 L 19.46875 0 L 9.453125 -15.5 L 9.109375 -15.5 L 9.0625 -8.765625 L 9.265625 0 L 3.609375 0 L 3.859375 -7.328125 L 3.609375 -25.015625 L 10.359375 -25.015625 L 20.359375 -9.515625 L 20.796875 -9.515625 L 20.609375 -24.765625 L 26.34375 -25.15625 Z M 26 -7.921875 "/></g></g></g><g fill="#ffffff" fill-opacity="1"><g transform="translate(188.019877, 188.157585)"><g><path d="M 20.796875 -5.046875 L 21.203125 -4.65625 L 20.75 0 L 3.609375 0 L 3.859375 -7.421875 L 3.609375 -25.015625 L 21 -25.015625 L 21.34375 -24.515625 L 20.953125 -19.90625 L 14.515625 -20.15625 L 9.859375 -20.15625 L 9.75 -15.109375 L 14.21875 -15.0625 L 18.53125 -15.203125 L 18.875 -14.765625 L 18.46875 -10.0625 L 13.765625 -10.203125 L 9.65625 -10.203125 L 9.609375 -8.03125 L 9.703125 -4.859375 L 14.0625 -4.859375 Z M 20.796875 -5.046875 "/></g></g></g><g fill="#ffffff" fill-opacity="1"><g transform="translate(212.388009, 188.157585)"><g><path d="M 18.28125 0 L 10.25 0 L 0.5 -31.890625 L 7.328125 -31.890625 L 8.125 -27.6875 L 14.171875 -6.234375 L 14.609375 -6.234375 L 21.546875 -27.34375 L 22.390625 -31.890625 L 29.03125 -31.890625 Z M 18.28125 0 "/></g></g></g><g fill="#ffffff" fill-opacity="1"><g transform="translate(243.244323, 188.157585)"><g><path d="M 14.359375 -25.40625 C 18.128906 -25.40625 21.035156 -24.332031 23.078125 -22.1875 C 25.128906 -20.039062 26.15625 -17.003906 26.15625 -13.078125 C 26.15625 -8.785156 25.039062 -5.457031 22.8125 -3.09375 C 20.582031 -0.726562 17.4375 0.453125 13.375 0.453125 C 9.644531 0.453125 6.753906 -0.644531 4.703125 -2.84375 C 2.660156 -5.039062 1.640625 -8.140625 1.640625 -12.140625 C 1.640625 -16.359375 2.742188 -19.625 4.953125 -21.9375 C 7.160156 -24.25 10.296875 -25.40625 14.359375 -25.40625 Z M 13.8125 -20.359375 C 11.769531 -20.359375 10.3125 -19.800781 9.4375 -18.6875 C 8.5625 -17.582031 8.125 -15.679688 8.125 -12.984375 C 8.125 -10.796875 8.3125 -9.082031 8.6875 -7.84375 C 9.070312 -6.613281 9.679688 -5.734375 10.515625 -5.203125 C 11.359375 -4.671875 12.492188 -4.40625 13.921875 -4.40625 C 15.992188 -4.40625 17.46875 -4.945312 18.34375 -6.03125 C 19.21875 -7.125 19.65625 -9.039062 19.65625 -11.78125 C 19.65625 -13.96875 19.457031 -15.675781 19.0625 -16.90625 C 18.664062 -18.144531 18.054688 -19.03125 17.234375 -19.5625 C 16.410156 -20.09375 15.269531 -20.359375 13.8125 -20.359375 Z M 13.8125 -20.359375 "/></g></g></g><g fill="#ffffff" fill-opacity="1"><g transform="translate(272.763395, 188.157585)"><g><path d="M 14.5625 -25.359375 C 17.039062 -25.359375 19.351562 -24.929688 21.5 -24.078125 L 20.40625 -18.828125 L 19.90625 -18.578125 C 19.144531 -19.097656 18.253906 -19.507812 17.234375 -19.8125 C 16.210938 -20.113281 15.191406 -20.265625 14.171875 -20.265625 C 12.148438 -20.265625 10.644531 -19.675781 9.65625 -18.5 C 8.664062 -17.320312 8.171875 -15.484375 8.171875 -12.984375 C 8.171875 -7.523438 10.269531 -4.796875 14.46875 -4.796875 C 15.457031 -4.796875 16.476562 -4.925781 17.53125 -5.1875 C 18.59375 -5.457031 19.550781 -5.828125 20.40625 -6.296875 L 20.953125 -6 L 20.453125 -0.796875 C 18.503906 -0.00390625 16.375 0.390625 14.0625 0.390625 C 10 0.390625 6.910156 -0.695312 4.796875 -2.875 C 2.691406 -5.050781 1.640625 -8.1875 1.640625 -12.28125 C 1.640625 -16.445312 2.757812 -19.664062 5 -21.9375 C 7.25 -24.21875 10.4375 -25.359375 14.5625 -25.359375 Z M 14.5625 -25.359375 "/></g></g></g><g fill="#ffffff" fill-opacity="1"><g transform="translate(297.032473, 188.157585)"><g><path d="M 24.96875 0 L 18.671875 0 L 17.984375 -3.609375 L 17.53125 -5.046875 L 12.484375 -5.109375 L 8.03125 -5 L 7.671875 -3.96875 L 6.9375 0 L 0.84375 0 L 9.609375 -25.015625 L 16.984375 -25.015625 Z M 16.203125 -9.75 L 13.375 -19.3125 L 12.984375 -19.3125 L 9.65625 -9.75 L 12.875 -9.703125 Z M 16.203125 -9.75 "/></g></g></g><g fill="#ffffff" fill-opacity="1"><g transform="translate(325.016173, 188.157585)"><g><path d="M 18.53125 -12.921875 C 20.28125 -12.492188 21.570312 -11.804688 22.40625 -10.859375 C 23.25 -9.921875 23.671875 -8.675781 23.671875 -7.125 C 23.671875 -4.625 22.628906 -2.773438 20.546875 -1.578125 C 18.472656 -0.390625 15.390625 0.203125 11.296875 0.203125 C 9.472656 0.203125 6.910156 0.132812 3.609375 0 L 3.859375 -7.421875 L 3.609375 -25.015625 L 13.671875 -25.0625 C 16.441406 -25.0625 18.609375 -24.515625 20.171875 -23.421875 C 21.742188 -22.335938 22.53125 -20.769531 22.53125 -18.71875 C 22.53125 -17.394531 22.179688 -16.238281 21.484375 -15.25 C 20.796875 -14.257812 19.8125 -13.484375 18.53125 -12.921875 Z M 16.046875 -17.875 C 16.046875 -18.90625 15.691406 -19.617188 14.984375 -20.015625 C 14.273438 -20.410156 13.03125 -20.609375 11.25 -20.609375 L 9.703125 -20.609375 L 9.609375 -14.703125 L 13.21875 -14.609375 C 14.175781 -14.835938 14.882812 -15.207031 15.34375 -15.71875 C 15.8125 -16.238281 16.046875 -16.957031 16.046875 -17.875 Z M 12.375 -4.15625 C 13.96875 -4.15625 15.179688 -4.425781 16.015625 -4.96875 C 16.859375 -5.519531 17.28125 -6.335938 17.28125 -7.421875 C 17.28125 -8.222656 17 -8.851562 16.4375 -9.3125 C 15.882812 -9.769531 15.03125 -10.132812 13.875 -10.40625 L 9.5625 -10.296875 L 9.515625 -8.03125 L 9.609375 -4.3125 C 10.660156 -4.207031 11.582031 -4.15625 12.375 -4.15625 Z M 12.375 -4.15625 "/></g></g></g><g fill="#ffffff" fill-opacity="1"><g transform="translate(115.96272, 147.028095)"><g><path d="M 2.46875 -15.140625 L 4.0625 -15.140625 L 4.0625 -1.390625 L 12.546875 -1.390625 L 12.546875 0 L 2.46875 0 Z M 2.46875 -15.140625 "/></g></g></g><g fill="#ffffff" fill-opacity="1"><g transform="translate(130.492205, 147.028095)"><g><path d="M 12.046875 -5.21875 L 2.53125 -5.21875 C 2.613281 -4.03125 3.066406 -3.070312 3.890625 -2.34375 C 4.710938 -1.613281 5.753906 -1.25 7.015625 -1.25 C 7.722656 -1.25 8.367188 -1.375 8.953125 -1.625 C 9.546875 -1.882812 10.0625 -2.257812 10.5 -2.75 L 11.359375 -1.75 C 10.859375 -1.144531 10.226562 -0.679688 9.46875 -0.359375 C 8.707031 -0.046875 7.875 0.109375 6.96875 0.109375 C 5.800781 0.109375 4.765625 -0.140625 3.859375 -0.640625 C 2.960938 -1.140625 2.257812 -1.828125 1.75 -2.703125 C 1.25 -3.585938 1 -4.582031 1 -5.6875 C 1 -6.800781 1.238281 -7.796875 1.71875 -8.671875 C 2.207031 -9.554688 2.875 -10.242188 3.71875 -10.734375 C 4.5625 -11.222656 5.507812 -11.46875 6.5625 -11.46875 C 7.613281 -11.46875 8.554688 -11.222656 9.390625 -10.734375 C 10.222656 -10.242188 10.878906 -9.5625 11.359375 -8.6875 C 11.835938 -7.8125 12.078125 -6.8125 12.078125 -5.6875 Z M 6.5625 -10.15625 C 5.457031 -10.15625 4.535156 -9.800781 3.796875 -9.09375 C 3.054688 -8.394531 2.632812 -7.484375 2.53125 -6.359375 L 10.609375 -6.359375 C 10.503906 -7.484375 10.078125 -8.394531 9.328125 -9.09375 C 8.585938 -9.800781 7.664062 -10.15625 6.5625 -10.15625 Z M 6.5625 -10.15625 "/></g></g></g><g fill="#ffffff" fill-opacity="1"><g transform="translate(145.345955, 147.028095)"><g><path d="M 6.125 -11.46875 C 7.613281 -11.46875 8.753906 -11.09375 9.546875 -10.34375 C 10.335938 -9.601562 10.734375 -8.507812 10.734375 -7.0625 L 10.734375 0 L 9.265625 0 L 9.265625 -1.78125 C 8.921875 -1.1875 8.410156 -0.722656 7.734375 -0.390625 C 7.066406 -0.0546875 6.269531 0.109375 5.34375 0.109375 C 4.070312 0.109375 3.0625 -0.191406 2.3125 -0.796875 C 1.5625 -1.398438 1.1875 -2.203125 1.1875 -3.203125 C 1.1875 -4.171875 1.535156 -4.945312 2.234375 -5.53125 C 2.941406 -6.125 4.054688 -6.421875 5.578125 -6.421875 L 9.203125 -6.421875 L 9.203125 -7.125 C 9.203125 -8.101562 8.925781 -8.847656 8.375 -9.359375 C 7.820312 -9.867188 7.019531 -10.125 5.96875 -10.125 C 5.25 -10.125 4.554688 -10.003906 3.890625 -9.765625 C 3.234375 -9.523438 2.664062 -9.195312 2.1875 -8.78125 L 1.5 -9.9375 C 2.070312 -10.425781 2.757812 -10.800781 3.5625 -11.0625 C 4.375 -11.332031 5.226562 -11.46875 6.125 -11.46875 Z M 5.578125 -1.109375 C 6.441406 -1.109375 7.1875 -1.304688 7.8125 -1.703125 C 8.4375 -2.097656 8.898438 -2.671875 9.203125 -3.421875 L 9.203125 -5.28125 L 5.625 -5.28125 C 3.675781 -5.28125 2.703125 -4.601562 2.703125 -3.25 C 2.703125 -2.582031 2.953125 -2.054688 3.453125 -1.671875 C 3.960938 -1.296875 4.671875 -1.109375 5.578125 -1.109375 Z M 5.578125 -1.109375 "/></g></g></g><g fill="#ffffff" fill-opacity="1"><g transform="translate(159.89705, 147.028095)"><g><path d="M 3.609375 -9.15625 C 3.972656 -9.914062 4.507812 -10.488281 5.21875 -10.875 C 5.9375 -11.269531 6.820312 -11.46875 7.875 -11.46875 L 7.875 -9.96875 L 7.515625 -10 C 6.316406 -10 5.375 -9.628906 4.6875 -8.890625 C 4.007812 -8.160156 3.671875 -7.128906 3.671875 -5.796875 L 3.671875 0 L 2.140625 0 L 2.140625 -11.390625 L 3.609375 -11.390625 Z M 3.609375 -9.15625 "/></g></g></g><g fill="#ffffff" fill-opacity="1"><g transform="translate(170.362243, 147.028095)"><g><path d="M 7.9375 -11.46875 C 9.363281 -11.46875 10.5 -11.050781 11.34375 -10.21875 C 12.1875 -9.394531 12.609375 -8.1875 12.609375 -6.59375 L 12.609375 0 L 11.078125 0 L 11.078125 -6.453125 C 11.078125 -7.628906 10.78125 -8.523438 10.1875 -9.140625 C 9.601562 -9.765625 8.757812 -10.078125 7.65625 -10.078125 C 6.4375 -10.078125 5.46875 -9.710938 4.75 -8.984375 C 4.03125 -8.265625 3.671875 -7.257812 3.671875 -5.96875 L 3.671875 0 L 2.140625 0 L 2.140625 -11.390625 L 3.609375 -11.390625 L 3.609375 -9.28125 C 4.023438 -9.976562 4.601562 -10.515625 5.34375 -10.890625 C 6.09375 -11.273438 6.957031 -11.46875 7.9375 -11.46875 Z M 7.9375 -11.46875 "/></g></g></g><g fill="#ffffff" fill-opacity="1"><g transform="translate(186.794139, 147.028095)"><g><path d="M 2.296875 0.109375 C 1.972656 0.109375 1.695312 -0.00390625 1.46875 -0.234375 C 1.25 -0.460938 1.140625 -0.742188 1.140625 -1.078125 C 1.140625 -1.410156 1.25 -1.6875 1.46875 -1.90625 C 1.695312 -2.132812 1.972656 -2.25 2.296875 -2.25 C 2.609375 -2.25 2.878906 -2.132812 3.109375 -1.90625 C 3.347656 -1.6875 3.46875 -1.410156 3.46875 -1.078125 C 3.46875 -0.742188 3.347656 -0.460938 3.109375 -0.234375 C 2.878906 -0.00390625 2.609375 0.109375 2.296875 0.109375 Z M 2.296875 0.109375 "/></g></g></g><g fill="#ffffff" fill-opacity="1"><g transform="translate(193.173436, 147.028095)"><g/></g></g><g fill="#ffffff" fill-opacity="1"><g transform="translate(200.633641, 147.028095)"><g><path d="M 13.171875 -1.390625 L 13.171875 0 L 2.46875 0 L 2.46875 -15.140625 L 12.859375 -15.140625 L 12.859375 -13.765625 L 4.0625 -13.765625 L 4.0625 -8.375 L 11.90625 -8.375 L 11.90625 -7.015625 L 4.0625 -7.015625 L 4.0625 -1.390625 Z M 13.171875 -1.390625 "/></g></g></g><g fill="#ffffff" fill-opacity="1"><g transform="translate(216.892601, 147.028095)"><g><path d="M 7.9375 -11.46875 C 9.363281 -11.46875 10.5 -11.050781 11.34375 -10.21875 C 12.1875 -9.394531 12.609375 -8.1875 12.609375 -6.59375 L 12.609375 0 L 11.078125 0 L 11.078125 -6.453125 C 11.078125 -7.628906 10.78125 -8.523438 10.1875 -9.140625 C 9.601562 -9.765625 8.757812 -10.078125 7.65625 -10.078125 C 6.4375 -10.078125 5.46875 -9.710938 4.75 -8.984375 C 4.03125 -8.265625 3.671875 -7.257812 3.671875 -5.96875 L 3.671875 0 L 2.140625 0 L 2.140625 -11.390625 L 3.609375 -11.390625 L 3.609375 -9.28125 C 4.023438 -9.976562 4.601562 -10.515625 5.34375 -10.890625 C 6.09375 -11.273438 6.957031 -11.46875 7.9375 -11.46875 Z M 7.9375 -11.46875 "/></g></g></g><g fill="#ffffff" fill-opacity="1"><g transform="translate(233.324497, 147.028095)"><g><path d="M 0.453125 4.3125 C -0.0234375 4.3125 -0.472656 4.25 -0.890625 4.125 C -1.316406 4 -1.671875 3.816406 -1.953125 3.578125 L -1.40625 2.40625 C -0.957031 2.789062 -0.363281 2.984375 0.375 2.984375 C 0.976562 2.984375 1.441406 2.800781 1.765625 2.4375 C 2.085938 2.082031 2.25 1.550781 2.25 0.84375 L 2.25 -11.390625 L 3.78125 -11.390625 L 3.78125 0.84375 C 3.78125 1.914062 3.492188 2.757812 2.921875 3.375 C 2.347656 4 1.523438 4.3125 0.453125 4.3125 Z M 3.03125 -13.890625 C 2.707031 -13.890625 2.4375 -13.992188 2.21875 -14.203125 C 2 -14.421875 1.890625 -14.679688 1.890625 -14.984375 C 1.890625 -15.273438 2 -15.53125 2.21875 -15.75 C 2.4375 -15.96875 2.707031 -16.078125 3.03125 -16.078125 C 3.34375 -16.078125 3.609375 -15.972656 3.828125 -15.765625 C 4.046875 -15.554688 4.15625 -15.304688 4.15625 -15.015625 C 4.15625 -14.691406 4.046875 -14.421875 3.828125 -14.203125 C 3.609375 -13.992188 3.34375 -13.890625 3.03125 -13.890625 Z M 3.03125 -13.890625 "/></g></g></g><g fill="#ffffff" fill-opacity="1"><g transform="translate(241.044126, 147.028095)"><g><path d="M 6.796875 0.109375 C 5.703125 0.109375 4.710938 -0.140625 3.828125 -0.640625 C 2.953125 -1.140625 2.257812 -1.828125 1.75 -2.703125 C 1.25 -3.585938 1 -4.582031 1 -5.6875 C 1 -6.800781 1.25 -7.796875 1.75 -8.671875 C 2.257812 -9.554688 2.953125 -10.242188 3.828125 -10.734375 C 4.710938 -11.222656 5.703125 -11.46875 6.796875 -11.46875 C 7.890625 -11.46875 8.875 -11.222656 9.75 -10.734375 C 10.632812 -10.242188 11.328125 -9.554688 11.828125 -8.671875 C 12.328125 -7.796875 12.578125 -6.800781 12.578125 -5.6875 C 12.578125 -4.582031 12.328125 -3.585938 11.828125 -2.703125 C 11.328125 -1.828125 10.632812 -1.140625 9.75 -0.640625 C 8.875 -0.140625 7.890625 0.109375 6.796875 0.109375 Z M 6.796875 -1.25 C 7.597656 -1.25 8.320312 -1.429688 8.96875 -1.796875 C 9.613281 -2.171875 10.113281 -2.695312 10.46875 -3.375 C 10.832031 -4.050781 11.015625 -4.820312 11.015625 -5.6875 C 11.015625 -6.550781 10.832031 -7.320312 10.46875 -8 C 10.113281 -8.6875 9.613281 -9.210938 8.96875 -9.578125 C 8.320312 -9.941406 7.597656 -10.125 6.796875 -10.125 C 5.984375 -10.125 5.253906 -9.941406 4.609375 -9.578125 C 3.972656 -9.210938 3.46875 -8.6875 3.09375 -8 C 2.726562 -7.320312 2.546875 -6.550781 2.546875 -5.6875 C 2.546875 -4.820312 2.726562 -4.050781 3.09375 -3.375 C 3.46875 -2.695312 3.972656 -2.171875 4.609375 -1.796875 C 5.253906 -1.429688 5.984375 -1.25 6.796875 -1.25 Z M 6.796875 -1.25 "/></g></g></g><g fill="#ffffff" fill-opacity="1"><g transform="translate(256.395094, 147.028095)"><g><path d="M 11.703125 -11.390625 L 6.015625 1.359375 C 5.554688 2.429688 5.019531 3.191406 4.40625 3.640625 C 3.800781 4.085938 3.078125 4.3125 2.234375 4.3125 C 1.679688 4.3125 1.164062 4.222656 0.6875 4.046875 C 0.21875 3.867188 -0.191406 3.609375 -0.546875 3.265625 L 0.171875 2.125 C 0.742188 2.695312 1.4375 2.984375 2.25 2.984375 C 2.769531 2.984375 3.210938 2.835938 3.578125 2.546875 C 3.953125 2.265625 4.296875 1.773438 4.609375 1.078125 L 5.109375 -0.015625 L 0.015625 -11.390625 L 1.625 -11.390625 L 5.90625 -1.703125 L 10.1875 -11.390625 Z M 11.703125 -11.390625 "/></g></g></g><g fill="#ffffff" fill-opacity="1"><g transform="translate(269.90849, 147.028095)"><g><path d="M 2.296875 0.109375 C 1.972656 0.109375 1.695312 -0.00390625 1.46875 -0.234375 C 1.25 -0.460938 1.140625 -0.742188 1.140625 -1.078125 C 1.140625 -1.410156 1.25 -1.6875 1.46875 -1.90625 C 1.695312 -2.132812 1.972656 -2.25 2.296875 -2.25 C 2.609375 -2.25 2.878906 -2.132812 3.109375 -1.90625 C 3.347656 -1.6875 3.46875 -1.410156 3.46875 -1.078125 C 3.46875 -0.742188 3.347656 -0.460938 3.109375 -0.234375 C 2.878906 -0.00390625 2.609375 0.109375 2.296875 0.109375 Z M 2.296875 0.109375 "/></g></g></g><g fill="#ffffff" fill-opacity="1"><g transform="translate(276.287786, 147.028095)"><g/></g></g><g fill="#ffffff" fill-opacity="1"><g transform="translate(283.748001, 147.028095)"><g><path d="M 13.171875 -1.390625 L 13.171875 0 L 2.46875 0 L 2.46875 -15.140625 L 12.859375 -15.140625 L 12.859375 -13.765625 L 4.0625 -13.765625 L 4.0625 -8.375 L 11.90625 -8.375 L 11.90625 -7.015625 L 4.0625 -7.015625 L 4.0625 -1.390625 Z M 13.171875 -1.390625 "/></g></g></g><g fill="#ffffff" fill-opacity="1"><g transform="translate(300.006962, 147.028095)"><g><path d="M 9.390625 0 L 5.78125 -4.765625 L 2.140625 0 L 0.40625 0 L 4.90625 -5.84375 L 0.625 -11.390625 L 2.359375 -11.390625 L 5.78125 -6.921875 L 9.203125 -11.390625 L 10.890625 -11.390625 L 6.59375 -5.84375 L 11.140625 0 Z M 9.390625 0 "/></g></g></g><g fill="#ffffff" fill-opacity="1"><g transform="translate(313.347421, 147.028095)"><g><path d="M 6.859375 0.109375 C 5.734375 0.109375 4.726562 -0.132812 3.84375 -0.625 C 2.957031 -1.113281 2.257812 -1.800781 1.75 -2.6875 C 1.25 -3.582031 1 -4.582031 1 -5.6875 C 1 -6.800781 1.25 -7.796875 1.75 -8.671875 C 2.257812 -9.554688 2.957031 -10.242188 3.84375 -10.734375 C 4.726562 -11.222656 5.734375 -11.46875 6.859375 -11.46875 C 7.835938 -11.46875 8.710938 -11.273438 9.484375 -10.890625 C 10.253906 -10.515625 10.863281 -9.957031 11.3125 -9.21875 L 10.171875 -8.4375 C 9.796875 -9 9.316406 -9.421875 8.734375 -9.703125 C 8.160156 -9.984375 7.535156 -10.125 6.859375 -10.125 C 6.035156 -10.125 5.296875 -9.941406 4.640625 -9.578125 C 3.984375 -9.210938 3.46875 -8.6875 3.09375 -8 C 2.726562 -7.320312 2.546875 -6.550781 2.546875 -5.6875 C 2.546875 -4.8125 2.726562 -4.035156 3.09375 -3.359375 C 3.46875 -2.691406 3.984375 -2.171875 4.640625 -1.796875 C 5.296875 -1.429688 6.035156 -1.25 6.859375 -1.25 C 7.535156 -1.25 8.160156 -1.382812 8.734375 -1.65625 C 9.316406 -1.9375 9.796875 -2.359375 10.171875 -2.921875 L 11.3125 -2.140625 C 10.863281 -1.398438 10.25 -0.835938 9.46875 -0.453125 C 8.695312 -0.078125 7.828125 0.109375 6.859375 0.109375 Z M 6.859375 0.109375 "/></g></g></g><g fill="#ffffff" fill-opacity="1"><g transform="translate(327.314803, 147.028095)"><g><path d="M 12.046875 -5.21875 L 2.53125 -5.21875 C 2.613281 -4.03125 3.066406 -3.070312 3.890625 -2.34375 C 4.710938 -1.613281 5.753906 -1.25 7.015625 -1.25 C 7.722656 -1.25 8.367188 -1.375 8.953125 -1.625 C 9.546875 -1.882812 10.0625 -2.257812 10.5 -2.75 L 11.359375 -1.75 C 10.859375 -1.144531 10.226562 -0.679688 9.46875 -0.359375 C 8.707031 -0.046875 7.875 0.109375 6.96875 0.109375 C 5.800781 0.109375 4.765625 -0.140625 3.859375 -0.640625 C 2.960938 -1.140625 2.257812 -1.828125 1.75 -2.703125 C 1.25 -3.585938 1 -4.582031 1 -5.6875 C 1 -6.800781 1.238281 -7.796875 1.71875 -8.671875 C 2.207031 -9.554688 2.875 -10.242188 3.71875 -10.734375 C 4.5625 -11.222656 5.507812 -11.46875 6.5625 -11.46875 C 7.613281 -11.46875 8.554688 -11.222656 9.390625 -10.734375 C 10.222656 -10.242188 10.878906 -9.5625 11.359375 -8.6875 C 11.835938 -7.8125 12.078125 -6.8125 12.078125 -5.6875 Z M 6.5625 -10.15625 C 5.457031 -10.15625 4.535156 -9.800781 3.796875 -9.09375 C 3.054688 -8.394531 2.632812 -7.484375 2.53125 -6.359375 L 10.609375 -6.359375 C 10.503906 -7.484375 10.078125 -8.394531 9.328125 -9.09375 C 8.585938 -9.800781 7.664062 -10.15625 6.5625 -10.15625 Z M 6.5625 -10.15625 "/></g></g></g><g fill="#ffffff" fill-opacity="1"><g transform="translate(342.168551, 147.028095)"><g><path d="M 2.140625 -16.0625 L 3.671875 -16.0625 L 3.671875 0 L 2.140625 0 Z M 2.140625 -16.0625 "/></g></g></g></svg>